/* XPM */
static char *result[] = {
/* columns rows colors chars-per-pixel */
"33 33 128 2 ",
"   c gray35",
".  c #5A5A5A",
"X  c gray37",
"o  c #656565",
"O  c #686868",
"+  c gray42",
"@  c #6C6C6C",
"#  c #6F6F6F",
"$  c gray45",
"%  c #747474",
"&  c #797979",
"*  c #7B7B7B",
"=  c #7C7C7C",
"-  c gray49",
";  c #7E7E7E",
":  c gray50",
">  c #808080",
",  c #818181",
"<  c gray51",
"1  c #838383",
"2  c #848484",
"3  c gray52",
"4  c #868686",
"5  c gray53",
"6  c #888888",
"7  c #898989",
"8  c gray54",
"9  c #8B8B8B",
"0  c gray55",
"q  c #8D8D8D",
"w  c #8E8E8E",
"e  c gray56",
"r  c #909090",
"t  c gray57",
"y  c #929292",
"u  c #939393",
"i  c gray58",
"p  c #959595",
"a  c gray59",
"s  c #979797",
"d  c #989898",
"f  c #9A9A9A",
"g  c #9B9B9B",
"h  c gray61",
"j  c #9D9D9D",
"k  c gray62",
"l  c #9F9F9F",
"z  c #A0A0A0",
"x  c gray63",
"c  c #A2A2A2",
"v  c gray64",
"b  c #A4A4A4",
"n  c #A5A5A5",
"m  c gray65",
"M  c gray66",
"N  c #A9A9A9",
"B  c #AAAAAA",
"V  c gray67",
"C  c #ACACAC",
"Z  c gray68",
"A  c #AEAEAE",
"S  c #AFAFAF",
"D  c gray69",
"F  c #B1B1B1",
"G  c #B2B2B2",
"H  c #B4B4B4",
"J  c #B6B6B6",
"K  c gray72",
"L  c #B9B9B9",
"P  c gray73",
"I  c #BBBBBB",
"U  c #BCBCBC",
"Y  c gray",
"T  c #C0C0C0",
"R  c #C1C1C1",
"E  c gray76",
"W  c #C3C3C3",
"Q  c #C5C5C5",
"!  c #C6C6C6",
"~  c gray78",
"^  c #CACACA",
"/  c #CBCBCB",
"(  c gray80",
")  c #D0D0D0",
"_  c #D2D2D2",
"`  c LightGray",
"'  c gray83",
"]  c #D5D5D5",
"[  c gray84",
"{  c #D7D7D7",
"}  c #D8D8D8",
"|  c gray85",
" . c #DADADA",
".. c gray86",
"X. c gainsboro",
"o. c #DDDDDD",
"O. c gray87",
"+. c #DFDFDF",
"@. c #E1E1E1",
"#. c #E2E2E2",
"$. c gray89",
"%. c #E4E4E4",
"&. c gray90",
"*. c #E6E6E6",
"=. c #E7E7E7",
"-. c gray91",
";. c #E9E9E9",
":. c #EAEAEA",
">. c gray92",
",. c #ECECEC",
"<. c gray93",
"1. c #EEEEEE",
"2. c #EFEFEF",
"3. c gray94",
"4. c #F1F1F1",
"5. c gray95",
"6. c #F3F3F3",
"7. c #F4F4F4",
"8. c #F6F6F6",
"9. c gray97",
"0. c #F8F8F8",
"q. c #F9F9F9",
"w. c gray98",
"e. c #FBFBFB",
"r. c gray99",
"t. c #FDFDFD",
"y. c #FEFEFE",
"u. c white",
/* pixels */
"u.u.u.u.u.u.u.u.u.u.u.u.u.u.u.u.u.u.u.u.u.u.u.u.u.u.u.u.u.u.u.u.u.",
"u.u.u.u.u.u.u.u.u.u.u.u.u.u.u.u.u.u.u.u.u.u.u.u.u.u.u.u.u.u.u.u.u.",
"u.u.u.u.u.u.u.u.u.u.u.u.u.u.u.u.u.u.u.u.u.u.u.u.u.u.u.u.u.u.u.u.u.",
"u.u.u.u.u.u.y.e.w.e.y.u.u.u.u.u.u.u.u.u.u.u.u.u.u.u.u.u.u.u.u.u.u.",
"u.u.u.u.u.t.5.+.` o.4.t.u.u.u.u.u.u.u.u.t.w.9.w.t.u.u.u.u.u.u.u.u.",
"u.u.u.u.y.7.~ d 8 t E 2.y.u.u.u.u.u.u.e.,.` ! ` ,.r.u.u.u.u.u.u.u.",
"u.u.u.u.t.=.j e n * 5 | r.u.u.u.u.u.y.>.K q 0 t I 2.y.u.u.u.u.u.u.",
"u.u.u.u.r.%.a h I 3 $ _ e.u.u.u.u.u.t.} 4 w K i i +.r.u.u.u.u.u.u.",
"u.u.u.u.y.1.F 8 q & z $.t.u.u.u.u.u.t.X.e 8 A q i +.r.u.u.u.u.u.u.",
"u.u.u.u.u.w.$.E G Y O.9.u.u.u.u.u.u.y.3.! h p d R 3.y.u.u.u.u.u.u.",
"u.u.u.u.u.u.r.6.<.5.w.y.u.u.u.u.u.u.u.t.4.O.' ..1.r.u.u.u.u.u.u.u.",
"u.u.u.u.u.u.u.u.u.u.u.u.u.u.u.u.u.u.u.u.y.r.w.e.y.u.u.u.u.u.u.u.u.",
"u.u.u.u.u.u.u.u.u.u.u.u.u.u.u.u.u.u.u.u.u.u.u.u.u.u.u.u.u.u.u.u.u.",
"u.u.u.u.u.u.u.u.u.u.u.u.u.u.u.u.u.u.u.u.u.u.u.u.u.u.u.u.u.u.u.u.u.",
"u.u.u.u.u.u.u.u.u.u.u.u.u.u.u.u.u.u.u.u.u.u.u.u.u.u.u.u.u.u.u.u.u.",
"u.u.u.u.u.u.u.u.u.u.u.u.u.u.u.u.u.u.u.u.u.u.u.u.u.u.u.u.u.u.u.u.u.",
"u.u.u.u.u.u.y.y.y.y.y.y.y.y.y.y.y.y.y.y.y.y.y.y.y.y.y.y.u.u.u.u.u.",
"u.u.u.u.u.e.>.o. . . . . . . . .| | | |  .| |  .X.#.:.4.0.y.u.u.u.",
"u.u.u.u.y.1.L t e t e 7 6 w r r 8 3 8 e w 6 3 7 0 d m H ) 7.y.u.u.",
"u.u.u.u.t.&.i o d A n $ + h D Z 0   1 C l # O a v g - X k >.t.u.u.",
"u.u.u.u.t.<.M & U *.@.f 9 ' 3.<.E & Z ;.| d q ` >.X.n # G 3.y.u.u.",
"u.u.u.u.u.0.) 9 g } *.c 9 X.t.e.' 9 S 2.=.b u O.8. .p r } q.u.u.u.",
"u.u.u.u.u.t.2.I 1 x Q y 2  .t.r.O.s n ;.-.M e } $.A < U 5.y.u.u.u.",
"u.u.u.u.u.u.r.-.J 2 1 o : { r.t.*.v f @.;.V 6 T H 1 B *.r.u.u.u.u.",
"u.u.u.u.u.u.u.e.;.T q . @ P %.2.#.n 0 ) +.m # 5 ; l X.q.u.u.u.u.u.",
"u.u.u.u.u.u.u.u.t.5.[ N > < k H H 5 @ z C 1 . % c { 9.y.u.u.u.u.u.",
"u.u.u.u.u.u.u.u.u.y.q.>.( V p 7 , % # = 5 e v W $.0.y.u.u.u.u.u.u.",
"u.u.u.u.u.u.u.u.u.u.u.t.9.1.$.[ / ! ! ^ ] @.,.8.r.y.u.u.u.u.u.u.u.",
"u.u.u.u.u.u.u.u.u.u.u.u.u.y.r.w.0.0.0.0.w.r.t.u.u.u.u.u.u.u.u.u.u.",
"u.u.u.u.u.u.u.u.u.u.u.u.u.u.u.u.u.u.u.u.u.u.u.u.u.u.u.u.u.u.u.u.u.",
"u.u.u.u.u.u.u.u.u.u.u.u.u.u.u.u.u.u.u.u.u.u.u.u.u.u.u.u.u.u.u.u.u.",
"u.u.u.u.u.u.u.u.u.u.u.u.u.u.u.u.u.u.u.u.u.u.u.u.u.u.u.u.u.u.u.u.u.",
"u.u.u.u.u.u.u.u.u.u.u.u.u.u.u.u.u.u.u.u.u.u.u.u.u.u.u.u.u.u.u.u.u."
};
